<svg width="81" height="73" viewBox="0 0 81 73" fill="none" xmlns="http://www.w3.org/2000/svg">
<path d="M4.24563 33.1821V36.3577L14.7497 36.8463V40.7548H18.414H21.5896V43.1976L19.3911 44.1748L22.811 46.129L25.9867 43.1976L28.9181 43.4419L29.1624 46.6176H35.5137L32.338 49.0604H36.0023L34.048 52.7246L41.6207 57.6103L44.3078 64.4502L50.9035 64.9387V62.7402H47.9721V58.3431H52.3691V61.7631L53.102 62.7402L56.5219 57.6103H58.4762V59.3202L56.5219 61.0302V62.7402L62.8733 63.2287V65.9158L64.8275 68.6029L63.1175 70.8015L66.0489 73L68.0032 70.8015L66.0489 68.1144L68.4917 66.1601L65.5604 63.2287L66.5375 60.0531V53.4575H62.3847V51.5032L67.0261 50.5261L73.6217 57.1217V55.1674L76.0645 51.5032L74.5988 46.129H77.0416V43.1976L70.446 39.5334V28.0522L74.5988 25.1208L79.4844 24.3879L78.7516 14.3724L80.4616 13.151V11.441L76.0645 8.26534H74.5988V11.441H72.6445L70.9346 13.151H68.736L67.5146 9.97532L63.8504 9.24247H58.9648L57.2548 11.441L48.7049 10.4639L40.3993 13.151V15.8381L42.3536 16.8152H34.2923L34.048 13.6395H31.6052V6.79965H34.048V4.60112L27.941 7.28822V1.66974H21.5896V2.89114L18.9025 0.93689H16.9483L15.2383 2.89114H12.5512L11.0855 1.66974H8.15414L8.88698 15.1052H4.24563L1.31425 19.7466L2.53566 21.2123L0.825684 24.6322L5.9556 28.0522L4.24563 28.785L3.2685 30.7393H2.53566V33.1821H4.24563Z" fill="#EC4899"/>
</svg>
