<svg width="293" height="200" viewBox="0 0 293 200" fill="none" xmlns="http://www.w3.org/2000/svg">
<path d="M146.841 6.77312L139.268 5.55171L133.405 9.46022V12.6359H130.718L131.451 16.0558L129.252 17.2772L129.985 22.8957L127.298 23.8728L127.787 27.2928L123.634 31.2013H119.725L115.084 35.3541L113.863 29.9799L110.443 28.0256L107.755 29.0028L99.6942 24.85V22.8957L96.0299 21.1857H90.6557L82.5945 29.9799L66.7161 35.3541L65.9833 33.8884L55.4792 32.9113L54.7463 39.2626L48.8836 44.6368V48.301L48.1507 49.5224L46.4407 47.8125H40.8223L35.6923 58.0723H32.5167L18.8369 51.4767L10.7756 54.6524V60.7594L11.997 61.4922L7.84422 64.9122L8.57707 69.5535L6.37853 72.7292L6.86709 77.3706L5.15712 79.3248L7.35566 82.7448L0.271484 93.2489L0.760048 99.8445L6.37853 106.196H11.997L16.1498 108.639L17.1269 114.501L7.35566 122.563L11.997 137.952L20.7912 143.082L37.158 156.274L37.8909 160.915L40.8223 165.312L44.975 163.358L47.6621 165.312L46.9293 168.976L50.105 176.305L51.0821 193.16L48.1507 196.336L51.0821 198.046L54.2578 195.847L62.0748 195.359L81.373 186.076V189.984L99.2056 196.336L100.427 199.267H103.603L126.809 186.809H130.229V177.526H132.916L135.359 175.083L139.512 180.946L147.329 185.343L149.772 176.305H150.993V164.823H153.925L157.345 166.289L164.673 165.801L165.65 160.671L170.047 163.358H172.246V159.938H170.536V157.739H171.269L172.246 155.785L173.956 155.052L168.826 151.632L170.536 148.212L169.314 146.747L172.246 142.105H176.887L176.154 128.67H178.841L180.551 129.891H183.239L184.949 127.937H186.903L189.59 129.891V128.67H195.941V134.533L202.048 131.601V133.8H199.605V140.64H202.048V143.815H210.354L208.4 142.838V140.151L216.705 137.464L225.255 138.441L226.965 136.242H231.851L235.515 136.975L236.736 140.151H238.935L240.645 138.441L236.736 133.8V131.601H240.645V129.891H243.82V131.113L251.393 122.807H253.347L252.859 119.143L254.813 116.456L263.119 115.479V114.501H265.806V112.791L263.852 111.57V109.616L267.271 105.952V97.646L273.379 95.2031V93.2489L276.066 91.7832V88.8518L274.844 87.8747V85.9204H279.73L283.883 82.5005H288.035V84.9433H289.99L292.677 83.2333L278.997 68.0879L274.844 60.0266L273.379 45.3696L269.959 36.8198L271.18 35.5984V33.8884H269.226L264.584 25.0943H258.477L256.279 30.7127L247.729 31.9341L244.849 35.2444L247.729 42.0606L243.576 50.2553L225.973 50.9743L229.119 47.8283L225.448 45.2066L225.973 42.585L223.789 39.5069L222.302 23.7091L222.827 21.0874L216.461 17.2772L213.774 19.9643L207.621 18.9901L208.146 16.3685L203.27 17.2772L199.361 7.50597L185.926 17.2772L184.949 11.1702L177.62 9.21594V3.59746L173.712 7.50597L171.269 3.59746H165.65L161.986 0.177513H158.566L155.146 5.55171L150.016 3.59746L146.841 6.77312Z" fill="#06B6D4"/>
</svg>
