<svg width="84" height="79" viewBox="0 0 84 79" fill="none" xmlns="http://www.w3.org/2000/svg">
<path fill-rule="evenodd" clip-rule="evenodd" d="M66.4481 29.7695L67.9138 29.0366L67.6695 27.5709L66.4481 28.3038H63.2725L58.8754 26.8381L53.5012 23.6624L51.5469 24.8838L51.0584 32.4566L45.4399 34.8994L48.8598 39.2965L46.1727 42.9607V45.4035L44.4628 46.8692V51.022H45.1956L45.4399 55.1748L58.1426 58.5947L58.8754 57.8619H61.3182L66.9367 60.3047L71.578 60.0604L74.0209 61.5261L80.8608 62.2589L83.3036 57.8619V55.9076H77.1965L76.2194 53.7091L76.9522 52.2434L67.4253 44.6707V43.4492L75.4866 40.0293V39.2965L73.288 37.0979L73.0437 33.9223H71.0895L70.3566 31.4794L68.4024 31.2352L66.4481 29.7695Z" fill="#A855F7"/>
<path d="M5.62196 66.1674V67.8774V68.8546L7.57622 69.3431L6.11053 71.5416L8.55335 72.5188H11.9733V66.1674L13.6833 64.946L14.9047 66.1674V68.366H19.0575V65.6789H20.0346L21.9888 68.366L20.7674 69.8317L21.256 74.473L23.6988 77.1601L25.6531 74.473L28.5845 74.9616L29.5616 78.1373L37.3786 72.5188L40.5543 73.0073L45.4399 66.656H46.9056L48.3713 67.8774H52.0355L52.5241 62.2589L55.944 61.7704L57.8983 60.0604L58.1426 58.5947L45.4399 55.1748L45.1956 51.022H44.4628V46.8692L46.1727 45.4035V42.9607L48.8598 39.2965L45.4399 34.8994L51.0584 32.4566L51.5469 24.8838L53.5012 23.6624L58.8754 26.8381L63.2725 28.3038H66.4481L67.6695 27.5709L78.9065 15.1126L78.6622 10.9598L77.9294 7.29553L75.4866 7.05125L69.8681 6.80697L69.3795 8.51694L63.2725 10.9598L61.0739 9.00551H58.3868V8.02838H56.6769V9.00551L49.3484 9.73835L46.9056 8.27266H41.0428V4.60843H39.0886L36.6458 0.944206H32.9815V4.85272L31.2716 6.56269L29.073 4.11987L25.8974 3.87559L23.6988 1.92133L18.8132 0.455643L16.8589 3.14274L17.3475 6.80697H15.3932L7.8205 15.1126V13.8911H4.64484V15.6011H0.736328V17.7997L4.64484 22.441H6.59909V19.2653H8.06478L12.4619 22.441V24.151L10.7519 25.3724L11.4847 35.3879L6.59909 36.1208L2.4463 39.0522V50.5334L9.04191 54.1976V57.129H6.59909L8.06478 62.5032L5.62196 66.1674Z" fill="#F3E8FF"/>
</svg>
