<svg width="133" height="89" viewBox="0 0 133 89" fill="none" xmlns="http://www.w3.org/2000/svg">
<path d="M0.450684 69.8646L8.2677 73.7731L15.8404 74.9945L19.0161 71.8189L24.146 73.7731L27.566 68.3989H30.9859L34.6501 71.8189H40.2686L42.7114 75.7274L46.6199 71.8189V77.4373L53.9484 79.3916L54.9255 85.4986L68.361 75.7274L72.2695 85.4986L76.9109 83.7887L75.9338 86.9643L82.7736 88.1857L76.9109 65.7118L82.7736 61.8033L105.248 62.7804L132.607 52.7649L130.653 45.925L125.279 43.2379V40.5508L119.66 36.6423L116.729 32.0009H115.019L111.599 30.291V28.3367H115.019L115.996 25.6496L112.576 17.344L108.179 13.1912L106.225 8.79416L106.958 4.64137V2.19855L103.782 1.22142L96.4534 5.6185V10.5041L90.8349 13.1912V10.5041H84.9722L82.2851 6.59562L80.0865 9.52701H72.7581V6.59562L56.6355 5.6185L54.1927 1.52588e-05L39.2915 4.64137H36.8487L38.0701 11.4813H42.7114V15.3898L36.8487 16.3669V19.2983L29.7645 21.2525V23.4511H27.566V27.3596H26.1003V32.0009H21.2146L22.6803 42.0165L17.7947 40.5508L11.4434 43.2379L8.2677 48.8564V52.7649H5.33632L8.2677 59.3605V63.7576H3.87063L0.450684 69.8646Z" fill="#3B82F6"/>
</svg>
